<?xml version="1.0" encoding="UTF-8" standalone="no"?>
<!DOCTYPE svg PUBLIC "-//W3C//DTD SVG 1.1//EN" "http://www.w3.org/Graphics/SVG/1.1/DTD/svg11.dtd">
<!-- Created with Vectornator (http://vectornator.io/) -->
<svg height="100%" stroke-miterlimit="10" style="fill-rule:nonzero;clip-rule:evenodd;stroke-linecap:round;stroke-linejoin:round;" version="1.1" viewBox="0 0 246.015 246.818" width="100%" xml:space="preserve" xmlns="http://www.w3.org/2000/svg" xmlns:vectornator="http://vectornator.io" xmlns:xlink="http://www.w3.org/1999/xlink">
<defs/>
<clipPath id="ArtboardFrame">
<rect height="246.818" width="246.015" x="0" y="0"/>
</clipPath>
<g clip-path="url(#ArtboardFrame)" id="Capa-1" vectornator:layerName="Capa 1">
<path d="M0 0L246.818 0L246.818 246.818L0 246.818L0 0Z" fill="#221e1f" fill-rule="nonzero" opacity="1" stroke="none"/>
<g opacity="1">
<path d="M88.5133 133.898C88.5876 133.797 88.6824 133.62 88.4788 133.57C88.3494 133.538 85.2312 132.302 83.4084 131.457C81.6332 130.633 79.555 129.329 78.1224 128.052C75.0342 125.301 74.1923 123.994 71.6272 120.497C70.4591 118.905 68.6183 114.261 68.8422 114.06C69.063 113.863 68.61 113.362 68.5083 113.067L67.5257 108.336C67.5257 108.336 67.4747 108.341 67.3971 108.385C67.263 108.462 64.9611 110.394 64.9611 110.394C64.9611 110.394 62.8571 112.097 62.7004 112.235C62.6176 112.307 62.6266 112.356 62.6266 112.356C62.6266 113.894 64.6937 119.806 65.398 121.172C67.1318 124.534 66.9923 124.289 69.4711 127.687C72.9525 132.46 78.8519 136.719 84.7607 138.659C84.8298 138.682 84.9823 138.746 85.1627 138.573C85.8821 137.882 87.2248 135.849 87.2248 135.849" fill="#f5891d" fill-rule="nonzero" opacity="1" stroke="none" vectornator:layerName="path"/>
<path d="M67.5069 108.338C67.5069 108.338 73.8925 108.183 79.4716 108.227C85.0506 108.27 89.8231 108.512 89.8231 108.512C89.8231 108.512 89.9173 108.529 89.8888 108.707C89.8717 108.814 89.8323 113.795 89.872 114.214C89.8883 114.387 89.8251 114.361 89.8251 114.361C89.8251 114.361 84.9415 114.038 79.362 113.986C75.2961 113.949 68.892 114.058 68.7621 114.108C68.5529 114.189 67.5069 114.155 67.5069 114.155L67.5069 108.338Z" fill="#f5891d" fill-rule="nonzero" opacity="1" stroke="none"/>
<path d="M35.5862 133.716C35.5862 133.716 35.4001 133.415 35.6836 133.226C36.3154 132.806 36.6696 132.842 38.186 131.977C39.0601 131.479 39.9276 130.91 40.5583 130.539C42.1453 129.606 43.647 128.45 44.9637 127.156C47.8022 124.369 50.4821 121.256 51.9337 116.674C52.157 115.969 52.5774 114.27 52.4869 114.156C52.2788 113.894 52.9482 109.824 52.9482 108.384L55.4228 108.31C55.4228 108.31 55.4761 108.292 55.5946 108.396C56.1872 108.913 57.78 110.395 57.78 110.395C57.78 110.395 59.1691 111.655 59.6485 112.122C59.722 112.194 59.7003 112.281 59.7003 112.281C59.7003 113.839 57.7065 119.511 57.0592 120.895C55.4656 124.301 55.5279 124.08 53.2496 127.523C50.0497 132.358 44.612 136.537 39.1811 138.504C38.864 138.618 37.3168 136.184 37.3168 136.184" fill="#f5891d" fill-rule="nonzero" opacity="1" stroke="none" vectornator:layerName="path"/>
<path d="M55.437 108.305C55.437 108.305 48.7585 108.161 42.9473 108.205C37.8086 108.244 33.3267 108.44 32.3584 108.485C32.2317 108.491 32.1651 108.495 32.1651 108.495C32.1651 108.495 32.0335 108.521 32.0061 108.743C31.9873 108.894 32.1631 114.42 32.1631 114.42C32.1631 114.42 34.5777 114.367 37.9699 114.151C37.9762 114.151 37.7926 114.217 38.0022 114.104C38.0942 114.055 41.3207 114.056 43.0615 114.04C46.4646 114.01 52.3767 113.998 52.4726 114.132C52.6055 114.318 55.4097 114.211 55.4097 114.211L55.437 108.305Z" fill="#f5891d" fill-rule="nonzero" opacity="1" stroke="none"/>
<path d="M32.1577 113.421L38.028 113.436C38.028 113.436 38.0342 114.053 37.9896 114.157C37.9488 114.252 37.8931 117.328 37.9608 119.326C38.0554 122.117 38.659 124.585 38.659 124.585C38.659 124.585 38.6725 124.665 38.5538 124.704C38.4352 124.744 38.1843 124.741 38.1843 124.741L33.3274 124.644C33.3274 124.644 33.1697 124.665 33.0778 124.615C32.9859 124.566 32.9597 124.445 32.9597 124.445C32.9597 124.445 32.5199 122.296 32.3194 119.54C32.1189 116.784 32.1577 113.421 32.1577 113.421Z" fill="#f5891d" fill-rule="nonzero" opacity="1" stroke="none"/>
<path d="M53.8903 126.31L50.2449 130.816C50.2449 130.816 52.821 132.622 54.9915 134.434C57.162 136.245 58.7575 138.245 58.7575 138.245L59.1716 138.047L62.0493 134.445L62.1968 133.793C62.1968 133.793 60.7539 132.117 58.6773 130.246C56.6007 128.375 53.8903 126.31 53.8903 126.31Z" fill="#f5891d" fill-rule="nonzero" opacity="1" stroke="none"/>
<g opacity="1">
<path d="M96.4009 133.716C96.4009 133.716 96.2148 133.415 96.4983 133.226C97.1302 132.806 97.4843 132.842 99.0007 131.977C99.8748 131.479 100.742 130.91 101.373 130.539C102.96 129.606 104.462 128.45 105.778 127.156C108.617 124.369 111.297 121.256 112.748 116.674C112.972 115.969 113.392 114.27 113.302 114.156C113.094 113.894 113.763 109.824 113.763 108.384L116.237 108.31C116.237 108.31 116.291 108.292 116.409 108.396C117.002 108.913 118.595 110.395 118.595 110.395C118.595 110.395 119.984 111.655 120.463 112.122C120.537 112.194 120.515 112.281 120.515 112.281C120.515 113.839 118.521 119.511 117.874 120.895C116.28 124.301 116.343 124.08 114.064 127.523C110.864 132.358 105.427 136.537 99.9958 138.504C99.6788 138.618 98.1315 136.184 98.1315 136.184" fill="#f5891d" fill-rule="nonzero" opacity="1" stroke="none" vectornator:layerName="path"/>
<path d="M116.252 108.305C116.252 108.305 109.573 108.161 103.762 108.205C97.9509 108.249 92.9799 108.495 92.9799 108.495C92.9799 108.495 92.8482 108.521 92.8208 108.743C92.802 108.894 92.9779 114.42 92.9779 114.42C92.9779 114.42 95.3925 114.367 98.7846 114.151C98.791 114.151 98.6073 114.217 98.8169 114.104C98.9089 114.055 102.135 114.056 103.876 114.04C107.279 114.01 113.191 113.998 113.287 114.132C113.42 114.318 116.224 114.211 116.224 114.211L116.252 108.305Z" fill="#f5891d" fill-rule="nonzero" opacity="1" stroke="none"/>
<path d="M92.9724 113.421L98.8428 113.436C98.8428 113.436 98.8489 114.053 98.8043 114.157C98.7635 114.252 98.7078 117.328 98.7756 119.326C98.8702 122.117 99.4737 124.585 99.4737 124.585C99.4737 124.585 99.4872 124.665 99.3685 124.704C99.2499 124.744 98.999 124.741 98.999 124.741L94.1421 124.644C94.1421 124.644 93.9845 124.665 93.8925 124.615C93.8006 124.566 93.7744 124.445 93.7744 124.445C93.7744 124.445 93.3346 122.296 93.1341 119.54C92.9336 116.784 92.9724 113.421 92.9724 113.421Z" fill="#f5891d" fill-rule="nonzero" opacity="1" stroke="none"/>
<path d="M114.705 126.31L111.06 130.816C111.06 130.816 113.636 132.622 115.806 134.434C117.977 136.245 119.572 138.245 119.572 138.245L119.986 138.047L122.864 134.445L123.012 133.793C123.012 133.793 121.569 132.117 119.492 130.246C117.415 128.375 114.705 126.31 114.705 126.31Z" fill="#f5891d" fill-rule="nonzero" opacity="1" stroke="none"/>
</g>
<path d="M150.82 122.832L145.116 122.36C145.116 122.36 145.561 119.667 145.725 117.223C145.889 114.778 145.523 112.575 145.523 112.575L145.95 112.439L150.542 112.849L151.118 113.155C151.118 113.155 151.353 115.067 151.296 117.489C151.256 119.22 151.097 121.284 150.971 122.277C150.921 122.673 150.82 122.832 150.82 122.832Z" fill="#f5891d" fill-rule="nonzero" opacity="1" stroke="none"/>
<path d="M150.753 133.486C150.405 133.043 146.57 132.692 145.053 131.827C144.179 131.328 143.312 130.759 142.681 130.389C141.094 129.456 139.592 128.299 138.276 127.006C135.437 124.218 132.757 121.106 131.306 116.523C131.082 115.818 130.662 114.12 130.752 114.006C130.96 113.743 130.291 109.673 130.291 108.234L127.817 108.16C127.817 108.16 127.763 108.142 127.645 108.246C127.052 108.763 125.459 110.245 125.459 110.245C125.459 110.245 124.07 111.504 123.591 111.972C123.517 112.043 123.539 112.131 123.539 112.131C123.539 113.689 125.533 119.361 126.18 120.744C127.774 124.151 127.711 123.93 129.99 127.373C132.249 130.786 137.749 135.445 143.317 137.715C145.636 138.66 150.11 138.801 150.479 138.257C150.692 137.942 150.851 135.939 150.851 135.939" fill="#f5891d" fill-rule="nonzero" opacity="1" stroke="none" vectornator:layerName="path"/>
<path d="M127.802 108.155C127.802 108.155 134.481 108.011 140.292 108.055C146.103 108.099 151.074 108.344 151.074 108.344C151.074 108.344 151.206 108.371 151.233 108.592C151.252 108.744 151.076 114.27 151.076 114.27C151.076 114.27 148.662 114.217 145.269 114.001C145.263 114 145.447 114.066 145.237 113.954C145.145 113.905 141.919 113.906 140.178 113.89C136.775 113.86 130.863 113.848 130.767 113.982C130.634 114.167 127.83 114.061 127.83 114.061L127.802 108.155Z" fill="#f5891d" fill-rule="nonzero" opacity="1" stroke="none"/>
<path d="M147.735 126.593C147.735 126.593 147.096 126.523 146.586 126.343C145.65 126.013 143.853 124.873 143.089 124.168C142.729 123.835 143.281 123.546 143.281 123.546C143.281 123.546 144.558 122.917 145.134 121.696C145.498 120.925 145.686 120.659 145.96 120.389C147.003 119.365 147.612 118.048 147.612 118.048L147.938 118.311L151.015 122.05C151.015 122.05 150.99 122.223 150.931 122.561C150.902 122.728 150.402 123.684 149.437 124.78C148.473 125.876 147.735 126.593 147.735 126.593Z" fill="#f5891d" fill-rule="nonzero" opacity="1" stroke="none"/>
<g opacity="1">
<path d="M156.14 124.41L161.845 124.882C161.845 124.882 161.409 127.459 161.254 129.799C161.098 132.139 161.472 134.25 161.472 134.25L161.045 134.379L156.453 133.97L155.876 133.675C155.876 133.675 155.635 131.844 155.683 129.524C155.718 127.868 155.87 125.892 155.992 124.942C156.04 124.562 156.14 124.41 156.14 124.41Z" fill="#f5891d" fill-rule="nonzero" opacity="1" stroke="none"/>
<path d="M156.243 113.331C156.59 113.775 160.426 114.126 161.942 114.991C162.816 115.489 163.684 116.058 164.315 116.429C165.902 117.362 167.403 118.518 168.72 119.811C171.558 122.599 174.238 125.712 175.69 130.294C175.913 130.999 176.334 132.698 176.243 132.812C176.035 133.074 176.704 137.144 176.704 138.584L179.179 138.658C179.179 138.658 179.232 138.675 179.351 138.572C179.943 138.054 181.536 136.573 181.536 136.573C181.536 136.573 182.925 135.313 183.405 134.846C183.478 134.774 183.457 134.687 183.457 134.687C183.457 133.129 181.463 127.457 180.815 126.073C179.222 122.667 179.284 122.887 177.006 119.445C174.747 116.032 169.246 111.372 163.678 109.103C161.359 108.157 156.885 108.016 156.516 108.561C156.303 108.875 156.144 110.879 156.144 110.879" fill="#f5891d" fill-rule="nonzero" opacity="1" stroke="none" vectornator:layerName="path"/>
<path d="M179.193 138.663C179.193 138.663 172.515 138.807 166.704 138.763C160.892 138.719 155.921 138.473 155.921 138.473C155.921 138.473 155.79 138.447 155.762 138.225C155.744 138.074 155.919 132.548 155.919 132.548C155.919 132.548 158.334 132.601 161.726 132.817C161.732 132.817 161.549 132.751 161.758 132.864C161.85 132.913 165.077 132.912 166.818 132.927C170.221 132.958 176.133 132.97 176.229 132.836C176.362 132.65 179.166 132.757 179.166 132.757L179.193 138.663Z" fill="#f5891d" fill-rule="nonzero" opacity="1" stroke="none"/>
<path d="M159.436 120.043C159.436 120.043 160.075 120.113 160.586 120.293C161.521 120.623 163.318 121.763 164.082 122.468C164.442 122.801 163.89 123.09 163.89 123.09C163.89 123.09 162.613 123.719 162.037 124.94C161.673 125.711 161.485 125.978 161.211 126.247C160.169 127.271 159.559 128.588 159.559 128.588L159.233 128.325L156.156 124.587C156.156 124.587 156.181 124.413 156.24 124.075C156.27 123.908 156.769 122.952 157.734 121.856C158.699 120.76 159.436 120.043 159.436 120.043Z" fill="#f5891d" fill-rule="nonzero" opacity="1" stroke="none"/>
</g>
<g opacity="1">
<path d="M187.4 133.652C187.4 133.652 187.214 133.351 187.497 133.162C188.129 132.742 188.483 132.778 190 131.913C190.874 131.415 191.741 130.846 192.372 130.475C193.959 129.542 195.461 128.386 196.778 127.092C199.616 124.305 202.296 121.192 203.748 116.61C203.971 115.905 204.391 114.206 204.301 114.092C204.093 113.83 204.762 109.759 204.762 108.32L207.237 108.246C207.237 108.246 207.29 108.228 207.408 108.332C208.001 108.849 209.594 110.331 209.594 110.331C209.594 110.331 210.983 111.591 211.462 112.058C211.536 112.13 211.514 112.217 211.514 112.217C211.514 113.775 209.52 119.447 208.873 120.831C207.279 124.237 207.342 124.016 205.063 127.459C201.864 132.294 196.426 136.473 190.995 138.44C190.678 138.554 189.131 136.12 189.131 136.12" fill="#f5891d" fill-rule="nonzero" opacity="1" stroke="none" vectornator:layerName="path"/>
<path d="M207.251 108.241C207.251 108.241 200.572 108.097 194.761 108.141C188.95 108.185 183.979 108.43 183.979 108.43C183.979 108.43 183.847 108.457 183.82 108.678C183.801 108.83 183.977 114.356 183.977 114.356C183.977 114.356 186.392 114.303 189.784 114.087C189.79 114.087 189.606 114.152 189.816 114.04C189.908 113.991 193.135 113.992 194.875 113.976C198.278 113.946 204.191 113.934 204.286 114.068C204.419 114.253 207.224 114.147 207.224 114.147L207.251 108.241Z" fill="#f5891d" fill-rule="nonzero" opacity="1" stroke="none"/>
<path d="M183.972 113.357L189.842 113.372C189.842 113.372 189.848 113.988 189.803 114.093C189.763 114.188 189.707 117.264 189.775 119.262C189.869 122.053 190.473 124.521 190.473 124.521C190.473 124.521 190.486 124.601 190.368 124.64C190.249 124.679 189.998 124.677 189.998 124.677L185.141 124.58C185.141 124.58 184.984 124.601 184.892 124.551C184.8 124.502 184.774 124.381 184.774 124.381C184.774 124.381 184.334 122.232 184.133 119.476C183.933 116.72 183.972 113.357 183.972 113.357Z" fill="#f5891d" fill-rule="nonzero" opacity="1" stroke="none"/>
<path d="M205.704 126.246L202.059 130.751C202.059 130.751 204.635 132.558 206.805 134.37C208.976 136.181 210.571 138.181 210.571 138.181L210.985 137.983L213.863 134.381L214.011 133.729C214.011 133.729 212.568 132.053 210.491 130.182C208.415 128.311 205.704 126.246 205.704 126.246Z" fill="#f5891d" fill-rule="nonzero" opacity="1" stroke="none"/>
</g>
</g>
<g fill="#f54b09" opacity="1" stroke="none">
<path d="M92.5196 159.825L92.5196 161.785L99.8796 161.785L99.8796 163.305L93.9796 163.305L93.9796 170.785L91.9196 170.785L91.9196 172.745L93.9796 172.745L93.9796 177.585L96.0196 177.585L96.0196 172.745L105.82 172.745L105.82 174.625C105.82 175.265 105.56 175.605 105.08 175.605L103.32 175.505L103.84 177.525L105.74 177.525C107.14 177.525 107.86 176.705 107.86 175.085L107.86 172.745L109.92 172.745L109.92 170.785L107.86 170.785L107.86 163.305L101.96 163.305L101.96 161.785L109.34 161.785L109.34 159.825L92.5196 159.825ZM96.0196 170.785L96.0196 168.865L99.8796 168.865L99.8796 170.785L96.0196 170.785ZM101.96 170.785L101.96 168.865L105.82 168.865L105.82 170.785L101.96 170.785ZM96.0196 167.045L96.0196 165.185L99.8796 165.185L99.8796 167.045L96.0196 167.045ZM101.96 165.185L105.82 165.185L105.82 167.045L101.96 167.045L101.96 165.185Z"/>
<path d="M115.4 168.305L120.28 168.305L120.28 169.345L115.36 169.345C115.38 169.005 115.4 168.665 115.4 168.305ZM120.28 166.785L115.42 166.785L115.42 165.725L120.28 165.725L120.28 166.785ZM115.18 170.985L122.22 170.985L122.22 164.205L123.3 163.065C121.78 161.725 120.18 160.425 118.46 159.145L117.08 159.145C115.4 160.925 113.58 162.465 111.58 163.765L112.72 165.365C112.96 165.205 113.2 165.025 113.46 164.845L113.46 167.685C113.44 171.125 112.8 173.945 111.52 176.125L113.02 177.465C113.96 175.845 114.62 174.005 115.02 171.965L115.02 177.625L116.92 177.625L116.92 176.885L120.42 176.885L120.42 177.625L122.34 177.625L122.34 171.865L115.04 171.865C115.08 171.585 115.14 171.285 115.18 170.985ZM116.92 175.245L116.92 173.505L120.42 173.505L120.42 175.245L116.92 175.245ZM121.5 164.065L119.18 164.065C118.98 163.485 118.78 162.965 118.58 162.505L116.54 162.825C116.78 163.205 116.98 163.625 117.18 164.065L114.54 164.065C115.78 163.105 116.9 162.105 117.9 161.105C118.86 161.765 120.06 162.745 121.5 164.065ZM124 160.505L124 173.265L126 173.265L126 160.505L124 160.505ZM127.46 177.385C128.82 177.385 129.5 176.685 129.5 175.305L129.5 159.165L127.42 159.165L127.42 174.765C127.42 175.245 127.18 175.485 126.74 175.485C125.88 175.485 124.98 175.445 124.02 175.365L124.48 177.385L127.46 177.385Z"/>
<path d="M133.7 159.145L132.28 160.485C133.72 161.685 134.84 162.805 135.62 163.845L137.08 162.405C136.16 161.325 135.02 160.225 133.7 159.145ZM145.1 177.265L149.68 177.265L150.2 175.205C149.64 175.245 148.86 175.285 147.84 175.325C146.8 175.325 145.8 175.345 144.8 175.345C143.24 175.345 141.9 175.325 140.74 175.305C139.56 175.265 138.68 175.105 138.08 174.805C137.62 174.545 137.16 174.145 136.7 173.625L136.48 173.405L136.48 165.805L131.9 165.805L131.9 167.725L134.54 167.725L134.54 173.205C133.74 173.645 132.86 174.665 131.86 176.265L133.4 177.705C134.4 175.905 135.08 175.005 135.48 175.005C135.7 175.005 135.94 175.165 136.22 175.505C136.82 176.185 137.52 176.645 138.32 176.885C139.16 177.085 140.22 177.205 141.52 177.225C142.8 177.245 144 177.265 145.1 177.265ZM140.44 163.205L143 163.205L143 165.165L137.5 165.165L137.5 167.065L149.9 167.065L149.9 165.165L144.98 165.165L144.98 163.205L148.86 163.205L148.86 161.285L144.98 161.285L144.98 159.105L143 159.105L143 161.285L141.2 161.285C141.34 160.865 141.48 160.425 141.6 159.985L139.7 159.565C139.3 161.125 138.64 162.605 137.7 163.965L139.4 165.045C139.76 164.465 140.12 163.845 140.44 163.205ZM139.08 168.185L139.08 174.225L148.48 174.225L148.48 168.185L139.08 168.185ZM146.48 172.285L141.08 172.285L141.08 170.105L146.48 170.105L146.48 172.285Z"/>
</g>
</g>
</svg>
