<?xml version="1.0" encoding="UTF-8" standalone="no"?>
<!DOCTYPE svg PUBLIC "-//W3C//DTD SVG 1.1//EN" "http://www.w3.org/Graphics/SVG/1.1/DTD/svg11.dtd">
<!-- Created with Vectornator (http://vectornator.io/) -->
<svg height="100%" stroke-miterlimit="10" style="fill-rule:nonzero;clip-rule:evenodd;stroke-linecap:round;stroke-linejoin:round;" version="1.1" viewBox="0 0 273.586 48.8502" width="100%" xml:space="preserve" xmlns="http://www.w3.org/2000/svg" xmlns:vectornator="http://vectornator.io" xmlns:xlink="http://www.w3.org/1999/xlink">
<defs/>
<g id="Capa-1" vectornator:layerName="Capa 1">
<g opacity="1">
<path d="M77.6105 38.2283C77.7085 38.0955 77.8334 37.8628 77.5651 37.7964C77.3944 37.7542 73.2844 36.1251 70.8818 35.0108C68.542 33.9255 65.8028 32.206 63.9145 30.5235C59.8441 26.8967 58.7344 25.1739 55.3534 20.565C53.8137 18.4661 51.3874 12.3455 51.6825 12.0812C51.9736 11.8205 51.3765 11.1613 51.2425 10.7721L49.9473 4.53641C49.9473 4.53641 49.88 4.5425 49.7778 4.60095C49.601 4.70203 46.5669 7.24863 46.5669 7.24863C46.5669 7.24863 43.7937 9.49349 43.5872 9.67471C43.478 9.77046 43.4899 9.83509 43.4899 9.83509C43.4899 11.8621 46.2144 19.6545 47.1427 21.4546C49.4281 25.8861 49.2442 25.5636 52.5115 30.0424C57.1002 36.3326 64.8761 41.9463 72.6643 44.5045C72.7554 44.5344 72.9564 44.619 73.1941 44.3906C74.1423 43.4793 75.9121 40.8 75.9121 40.8" fill="#f5891d" fill-rule="nonzero" opacity="1" stroke="none" vectornator:layerName="path"/>
<path d="M49.9226 4.53904C49.9226 4.53904 58.3393 4.33444 65.6929 4.3917C73.0465 4.44895 79.337 4.76807 79.337 4.76807C79.337 4.76807 79.4611 4.79088 79.4236 5.02495C79.401 5.16587 79.3491 11.7313 79.4013 12.284C79.4228 12.5115 79.3395 12.4769 79.3395 12.4769C79.3395 12.4769 72.9026 12.0511 65.5484 11.9832C60.1892 11.9338 51.7481 12.0786 51.5769 12.1446C51.3011 12.2507 49.9226 12.2055 49.9226 12.2055L49.9226 4.53904Z" fill="#f5891d" fill-rule="nonzero" opacity="1" stroke="none"/>
<path d="M7.84859 37.9892C7.84859 37.9892 7.6033 37.5923 7.97701 37.3435C8.80978 36.7889 9.27659 36.8366 11.2753 35.6969C12.4275 35.0399 13.5709 34.2899 14.4022 33.8013C16.494 32.5717 18.4734 31.0473 20.2089 29.3428C23.9502 25.6682 27.4826 21.5654 29.3959 15.5256C29.6902 14.5966 30.2442 12.3576 30.125 12.2072C29.8508 11.8614 30.733 6.49667 30.733 4.59935L33.9947 4.50195C33.9947 4.50195 34.0649 4.47863 34.2212 4.61511C35.0023 5.29716 37.1017 7.2498 37.1017 7.2498C37.1017 7.2498 38.9327 8.91019 39.5645 9.52624C39.6615 9.62083 39.6328 9.73564 39.6328 9.73564C39.6328 11.7893 37.0049 19.2655 36.1516 21.0892C34.0511 25.5789 34.1333 25.2884 31.1302 29.826C26.9126 36.1989 19.7453 41.7074 12.5869 44.2992C12.1691 44.4506 10.1297 41.242 10.1297 41.242" fill="#f5891d" fill-rule="nonzero" opacity="1" stroke="none" vectornator:layerName="path"/>
<path d="M34.0135 4.49502C34.0135 4.49502 25.2107 4.30565 17.5511 4.36366C10.7778 4.41495 4.87046 4.67371 3.59411 4.7329C3.4271 4.74064 3.33938 4.74497 3.33938 4.74497C3.33938 4.74497 3.16584 4.77966 3.1297 5.07182C3.10496 5.27185 3.33674 12.5551 3.33674 12.5551C3.33674 12.5551 6.51938 12.4856 10.9905 12.2009C10.9989 12.2003 10.7568 12.287 11.0331 12.1389C11.1543 12.0739 15.4072 12.0755 17.7016 12.0549C22.1871 12.0146 29.9797 11.9988 30.1061 12.1754C30.2813 12.4201 33.9775 12.2801 33.9775 12.2801L34.0135 4.49502Z" fill="#f5891d" fill-rule="nonzero" opacity="1" stroke="none"/>
<path d="M3.32958 11.2388L11.0671 11.2587C11.0671 11.2587 11.0753 12.0708 11.0165 12.2082C10.9627 12.334 10.8893 16.3876 10.9786 19.0217C11.1033 22.7003 11.8987 25.9534 11.8987 25.9534C11.8987 25.9534 11.9166 26.0592 11.7602 26.1108C11.6037 26.1623 11.2731 26.1597 11.2731 26.1597L4.87132 26.0315C4.87132 26.0315 4.66352 26.0591 4.54236 25.9936C4.4212 25.928 4.38669 25.7692 4.38669 25.7692C4.38669 25.7692 3.80702 22.9362 3.54274 19.3036C3.27847 15.671 3.32958 11.2388 3.32958 11.2388Z" fill="#f5891d" fill-rule="nonzero" opacity="1" stroke="none"/>
<path d="M31.9748 28.2271L27.1699 34.1657C27.1699 34.1657 30.5653 36.5471 33.4262 38.9346C36.2871 41.3221 38.3901 43.9582 38.3901 43.9582L38.936 43.6972L42.7289 38.9491L42.9234 38.09C42.9234 38.09 41.0215 35.881 38.2844 33.4152C35.5472 30.9495 31.9748 28.2271 31.9748 28.2271Z" fill="#f5891d" fill-rule="nonzero" opacity="1" stroke="none"/>
<g opacity="1">
<path d="M88.007 37.9892C88.007 37.9892 87.7617 37.5923 88.1354 37.3435C88.9682 36.7889 89.435 36.8366 91.4337 35.6969C92.5858 35.0399 93.7293 34.2899 94.5606 33.8013C96.6524 32.5717 98.6318 31.0473 100.367 29.3428C104.109 25.6682 107.641 21.5654 109.554 15.5256C109.849 14.5966 110.403 12.3576 110.283 12.2072C110.009 11.8614 110.891 6.49667 110.891 4.59935L114.153 4.50195C114.153 4.50195 114.223 4.47863 114.38 4.61511C115.161 5.29716 117.26 7.2498 117.26 7.2498C117.26 7.2498 119.091 8.91019 119.723 9.52624C119.82 9.62083 119.791 9.73564 119.791 9.73564C119.791 11.7893 117.163 19.2655 116.31 21.0892C114.209 25.5789 114.292 25.2884 111.289 29.826C107.071 36.1989 99.9037 41.7074 92.7453 44.2992C92.3274 44.4506 90.2881 41.242 90.2881 41.242" fill="#f5891d" fill-rule="nonzero" opacity="1" stroke="none" vectornator:layerName="path"/>
<path d="M114.172 4.49502C114.172 4.49502 105.369 4.30565 97.7095 4.36366C90.05 4.42167 83.4978 4.74497 83.4978 4.74497C83.4978 4.74497 83.3242 4.77966 83.2881 5.07182C83.2633 5.27185 83.4951 12.5551 83.4951 12.5551C83.4951 12.5551 86.6778 12.4856 91.1489 12.2009C91.1572 12.2003 90.9152 12.287 91.1915 12.1389C91.3127 12.0739 95.5655 12.0755 97.86 12.0549C102.346 12.0146 110.138 11.9988 110.265 12.1754C110.44 12.4201 114.136 12.2801 114.136 12.2801L114.172 4.49502Z" fill="#f5891d" fill-rule="nonzero" opacity="1" stroke="none"/>
<path d="M83.488 11.2388L91.2255 11.2587C91.2255 11.2587 91.2337 12.0708 91.1749 12.2082C91.1211 12.334 91.0477 16.3876 91.1369 19.0217C91.2616 22.7003 92.0571 25.9534 92.0571 25.9534C92.0571 25.9534 92.0749 26.0592 91.9185 26.1108C91.7621 26.1623 91.4315 26.1597 91.4315 26.1597L85.0297 26.0315C85.0297 26.0315 84.8219 26.0591 84.7007 25.9936C84.5796 25.928 84.5451 25.7692 84.5451 25.7692C84.5451 25.7692 83.9654 22.9362 83.7011 19.3036C83.4368 15.671 83.488 11.2388 83.488 11.2388Z" fill="#f5891d" fill-rule="nonzero" opacity="1" stroke="none"/>
<path d="M112.133 28.2271L107.328 34.1657C107.328 34.1657 110.724 36.5471 113.585 38.9346C116.445 41.3221 118.548 43.9582 118.548 43.9582L119.094 43.6972L122.887 38.9491L123.082 38.09C123.082 38.09 121.18 35.881 118.443 33.4152C115.706 30.9495 112.133 28.2271 112.133 28.2271Z" fill="#f5891d" fill-rule="nonzero" opacity="1" stroke="none"/>
</g>
<path d="M159.736 23.6432L152.218 23.0205C152.218 23.0205 152.804 19.4714 153.02 16.2493C153.236 13.0272 152.753 10.1228 152.753 10.1228L153.317 9.9438L159.37 10.4851L160.128 10.8872C160.128 10.8872 160.438 13.4075 160.363 16.6006C160.31 18.8817 160.1 21.6023 159.935 22.9106C159.869 23.4337 159.736 23.6432 159.736 23.6432Z" fill="#f5891d" fill-rule="nonzero" opacity="1" stroke="none"/>
<path d="M159.647 37.6857C159.189 37.1013 154.133 36.6385 152.135 35.4988C150.982 34.8418 149.839 34.0917 149.008 33.6031C146.916 32.3735 144.936 30.8492 143.201 29.1446C139.46 25.4701 135.927 21.3672 134.014 15.3275C133.72 14.3985 133.166 12.1594 133.285 12.0091C133.559 11.6632 132.677 6.29853 132.677 4.4012L129.415 4.30381C129.415 4.30381 129.345 4.28049 129.189 4.41697C128.408 5.09902 126.308 7.05166 126.308 7.05166C126.308 7.05166 124.477 8.71204 123.845 9.32809C123.748 9.42268 123.777 9.5375 123.777 9.5375C123.777 11.5911 126.405 19.0673 127.258 20.8911C129.359 25.3808 129.277 25.0902 132.28 29.6279C135.257 34.1268 142.507 40.268 149.846 43.2594C152.903 44.5055 158.8 44.6912 159.286 43.9735C159.567 43.5595 159.777 40.9187 159.777 40.9187" fill="#f5891d" fill-rule="nonzero" opacity="1" stroke="none" vectornator:layerName="path"/>
<path d="M129.396 4.29687C129.396 4.29687 138.199 4.1075 145.859 4.16551C153.518 4.22352 160.07 4.54683 160.07 4.54683C160.07 4.54683 160.244 4.58152 160.28 4.87368C160.305 5.0737 160.073 12.3569 160.073 12.3569C160.073 12.3569 156.89 12.2875 152.419 12.0027C152.411 12.0022 152.653 12.0888 152.377 11.9407C152.256 11.8758 148.003 11.8773 145.708 11.8567C141.223 11.8165 133.43 11.8006 133.304 11.9772C133.129 12.222 129.432 12.082 129.432 12.082L129.396 4.29687Z" fill="#f5891d" fill-rule="nonzero" opacity="1" stroke="none"/>
<path d="M155.67 28.6C155.67 28.6 154.827 28.5079 154.154 28.2707C152.921 27.8355 150.552 26.3331 149.545 25.4034C149.071 24.9654 149.799 24.5841 149.799 24.5841C149.799 24.5841 151.482 23.7554 152.241 22.1461C152.721 21.1296 152.969 20.778 153.33 20.4231C154.704 19.0732 155.507 17.3373 155.507 17.3373L155.937 17.6844L159.993 22.6114C159.993 22.6114 159.96 22.84 159.882 23.2854C159.843 23.5062 159.185 24.7656 157.913 26.2103C156.641 27.655 155.67 28.6 155.67 28.6Z" fill="#f5891d" fill-rule="nonzero" opacity="1" stroke="none"/>
<g opacity="1">
<path d="M166.748 25.7228L174.267 26.3452C174.267 26.3452 173.693 29.7414 173.488 32.8258C173.283 35.9102 173.776 38.6928 173.776 38.6928L173.213 38.8622L167.16 38.323L166.4 37.9353C166.4 37.9353 166.082 35.5211 166.146 32.4639C166.191 30.28 166.391 27.6758 166.552 26.4236C166.616 25.923 166.748 25.7228 166.748 25.7228Z" fill="#f5891d" fill-rule="nonzero" opacity="1" stroke="none"/>
<path d="M166.883 11.1203C167.341 11.7048 172.397 12.1676 174.395 13.3073C175.547 13.9642 176.691 14.7143 177.522 15.2029C179.614 16.4325 181.593 17.9568 183.329 19.6614C187.07 23.3359 190.603 27.4388 192.516 33.4786C192.81 34.4075 193.364 36.6466 193.245 36.7969C192.971 37.1428 193.853 42.5075 193.853 44.4048L197.115 44.5022C197.115 44.5022 197.185 44.5255 197.341 44.3891C198.122 43.707 200.222 41.7544 200.222 41.7544C200.222 41.7544 202.053 40.094 202.685 39.4779C202.782 39.3833 202.753 39.2685 202.753 39.2685C202.753 37.2149 200.125 29.7387 199.272 27.915C197.171 23.4252 197.253 23.7158 194.25 19.1781C191.273 14.6793 184.023 8.53803 176.684 5.54664C173.627 4.30055 167.73 4.11485 167.243 4.83249C166.963 5.24652 166.753 7.8873 166.753 7.8873" fill="#f5891d" fill-rule="nonzero" opacity="1" stroke="none" vectornator:layerName="path"/>
<path d="M197.134 44.5092C197.134 44.5092 188.331 44.6985 180.671 44.6405C173.012 44.5825 166.459 44.2592 166.459 44.2592C166.459 44.2592 166.286 44.2245 166.25 43.9324C166.225 43.7323 166.457 36.4491 166.457 36.4491C166.457 36.4491 169.639 36.5186 174.111 36.8033C174.119 36.8038 173.877 36.7172 174.153 36.8653C174.274 36.9303 178.527 36.9287 180.822 36.9493C185.307 36.9895 193.1 37.0054 193.226 36.8288C193.401 36.584 197.098 36.7241 197.098 36.7241L197.134 44.5092Z" fill="#f5891d" fill-rule="nonzero" opacity="1" stroke="none"/>
<path d="M171.092 19.9671C171.092 19.9671 171.935 20.0592 172.607 20.2964C173.84 20.7316 176.209 22.234 177.216 23.1637C177.691 23.6017 176.963 23.983 176.963 23.983C176.963 23.983 175.279 24.8117 174.52 26.421C174.041 27.4375 173.793 27.7891 173.431 28.144C172.058 29.4939 171.255 31.2298 171.255 31.2298L170.824 30.8827L166.769 25.9557C166.769 25.9557 166.802 25.7271 166.88 25.2817C166.919 25.0609 167.576 23.8015 168.848 22.3568C170.12 20.9121 171.092 19.9671 171.092 19.9671Z" fill="#f5891d" fill-rule="nonzero" opacity="1" stroke="none"/>
</g>
<g opacity="1">
<path d="M207.951 37.9048C207.951 37.9048 207.705 37.5079 208.079 37.259C208.912 36.7045 209.379 36.7522 211.377 35.6125C212.53 34.9555 213.673 34.2055 214.504 33.7168C216.596 32.4872 218.575 30.9629 220.311 29.2583C224.052 25.5838 227.585 21.481 229.498 15.4412C229.792 14.5122 230.346 12.2731 230.227 12.1228C229.953 11.7769 230.835 6.41224 230.835 4.51492L234.097 4.41752C234.097 4.41752 234.167 4.3942 234.323 4.53068C235.104 5.21273 237.204 7.16537 237.204 7.16537C237.204 7.16537 239.035 8.82576 239.667 9.44181C239.764 9.5364 239.735 9.65121 239.735 9.65121C239.735 11.7048 237.107 19.181 236.254 21.0048C234.153 25.4945 234.235 25.2039 231.232 29.7416C227.015 36.1145 219.847 41.623 212.689 44.2147C212.271 44.3662 210.232 41.1576 210.232 41.1576" fill="#f5891d" fill-rule="nonzero" opacity="1" stroke="none" vectornator:layerName="path"/>
<path d="M234.116 4.41059C234.116 4.41059 225.313 4.22122 217.653 4.27923C209.994 4.33724 203.441 4.66054 203.441 4.66054C203.441 4.66054 203.268 4.69523 203.232 4.98739C203.207 5.18742 203.439 12.4707 203.439 12.4707C203.439 12.4707 206.621 12.4012 211.093 12.1164C211.101 12.1159 210.859 12.2025 211.135 12.0544C211.256 11.9895 215.509 11.9911 217.804 11.9705C222.289 11.9302 230.082 11.9144 230.208 12.091C230.383 12.3357 234.08 12.1957 234.08 12.1957L234.116 4.41059Z" fill="#f5891d" fill-rule="nonzero" opacity="1" stroke="none"/>
<path d="M203.432 11.1543L211.169 11.1743C211.169 11.1743 211.177 11.9864 211.119 12.1238C211.065 12.2496 210.991 16.3032 211.081 18.9372C211.205 22.6159 212.001 25.869 212.001 25.869C212.001 25.869 212.019 25.9748 211.862 26.0264C211.706 26.0779 211.375 26.0752 211.375 26.0752L204.973 25.9471C204.973 25.9471 204.766 25.9747 204.644 25.9091C204.523 25.8436 204.489 25.6848 204.489 25.6848C204.489 25.6848 203.909 22.8518 203.645 19.2192C203.381 15.5866 203.432 11.1543 203.432 11.1543Z" fill="#f5891d" fill-rule="nonzero" opacity="1" stroke="none"/>
<path d="M232.077 28.1427L227.272 34.0812C227.272 34.0812 230.667 36.4626 233.528 38.8501C236.389 41.2376 238.492 43.8737 238.492 43.8737L239.038 43.6128L242.831 38.8646L243.025 38.0056C243.025 38.0056 241.124 35.7965 238.386 33.3308C235.649 30.8651 232.077 28.1427 232.077 28.1427Z" fill="#f5891d" fill-rule="nonzero" opacity="1" stroke="none"/>
</g>
</g>
</g>
</svg>
