<?xml version="1.0" encoding="UTF-8" standalone="no"?>
<!DOCTYPE svg PUBLIC "-//W3C//DTD SVG 1.1//EN" "http://www.w3.org/Graphics/SVG/1.1/DTD/svg11.dtd">
<!-- Created with Vectornator (http://vectornator.io/) -->
<svg height="100%" stroke-miterlimit="10" style="fill-rule:nonzero;clip-rule:evenodd;stroke-linecap:round;stroke-linejoin:round;" version="1.1" viewBox="0 0 181.352 28.2798" width="100%" xml:space="preserve" xmlns="http://www.w3.org/2000/svg" xmlns:vectornator="http://vectornator.io" xmlns:xlink="http://www.w3.org/1999/xlink">
<defs/>
<clipPath id="ArtboardFrame">
<rect height="28.2798" width="181.352" x="0" y="0"/>
</clipPath>
<g clip-path="url(#ArtboardFrame)" id="Capa-1" vectornator:layerName="Capa 1">
<g opacity="1" vectornator:layerName="Grupo 8">
<g opacity="1" vectornator:layerName="Grupo 7">
<path d="M3.36287 13.5875C3.89455 13.2334 6.46888 13.4574 7.99258 13.1568C11.0838 12.5468 15.549 12.2608 16.7705 8.4048C16.9584 7.81175 17.3121 6.38222 17.236 6.28627C17.061 6.06543 17.6242 2.6404 17.6242 1.42908L19.7066 1.3669C19.7066 1.3669 19.7514 1.35201 19.8512 1.43914C20.3499 1.87459 21.6902 3.12123 21.6902 3.12123C21.6902 3.12123 22.8592 4.18128 23.2626 4.57459C23.3245 4.63498 23.3062 4.70828 23.3062 4.70828C23.3062 6.0194 20.1604 12.8332 16.5386 14.8323C12.2671 17.1902 8.50933 16.2737 3.93913 17.9285" fill="#e1500b" fill-rule="nonzero" opacity="1" stroke="none" vectornator:layerName="path"/>
<path d="M19.7186 1.36247C19.7186 1.36247 14.0985 1.24157 9.20836 1.2786C4.88402 1.31135 1.11255 1.47655 0.297671 1.51434C0.191052 1.51929 0.135048 1.52205 0.135048 1.52205C0.135048 1.52205 0.0242533 1.5442 0.00118012 1.73073C-0.0146149 1.85843 0.133362 6.50832 0.133362 6.50832C0.133362 6.50832 2.16528 6.46401 5.01982 6.28218C5.02518 6.28186 4.87062 6.33715 5.04702 6.2426C5.1244 6.2011 7.83961 6.20212 9.30444 6.18897C12.1682 6.1633 17.1433 6.15315 17.224 6.2659C17.3358 6.42219 19.6956 6.33274 19.6956 6.33274L19.7186 1.36247Z" fill="#e1500b" fill-rule="nonzero" opacity="1" stroke="none" vectornator:layerName="path"/>
<path d="M0.128791 5.66794L5.06872 5.69616C5.06872 5.69616 5.07396 6.84215 5.03642 7.03605C5.00207 7.21353 4.95521 12.934 5.01222 16.6512C5.09183 21.8425 5.59965 26.4333 5.59965 26.4333C5.59965 26.4333 5.61108 26.5826 5.51116 26.6554C5.41131 26.7281 5.20024 26.7243 5.20024 26.7243L1.1131 26.5435C1.1131 26.5435 0.980424 26.5825 0.903071 26.49C0.825724 26.3975 0.803691 26.1734 0.803691 26.1734C0.803691 26.1734 0.433607 22.1755 0.264881 17.0491C0.0961543 11.9227 0.128791 5.66794 0.128791 5.66794Z" fill="#e1500b" fill-rule="nonzero" opacity="1" stroke="none" vectornator:layerName="path"/>
<path d="M15.4016 14.9596L9.85931 16.1962C9.85931 16.1962 14.3083 20.3375 15.7109 22.2591C17.0006 24.0262 19.7186 26.7244 19.7186 26.7244L23.3087 23.6738C23.3087 23.6738 24.3448 23.8678 20.5364 20.6C18.7514 19.0684 15.4016 14.9596 15.4016 14.9596Z" fill="#e1500b" fill-rule="nonzero" opacity="1" stroke="none" vectornator:layerName="path"/>
</g>
<g opacity="1" vectornator:layerName="Grupo 6">
<path d="M55.1526 13.5875C55.6843 13.2334 58.2586 13.4574 59.7823 13.1568C62.8737 12.5468 67.3389 12.2608 68.5602 8.4048C68.7479 7.81175 69.1016 6.38222 69.0257 6.28627C68.8507 6.06543 69.4138 2.6404 69.4138 1.42908L71.4964 1.3669C71.4964 1.3669 71.5411 1.35201 71.6407 1.43914C72.1393 1.87459 73.48 3.12123 73.48 3.12123C73.48 3.12123 74.649 4.18128 75.0525 4.57459C75.1144 4.63498 75.0959 4.70828 75.0959 4.70828C75.0959 6.0194 71.9503 12.8332 68.3285 14.8323C64.0567 17.1902 60.299 16.2737 55.7288 17.9285" fill="#e1500b" fill-rule="nonzero" opacity="1" stroke="none" vectornator:layerName="path 1"/>
<path d="M71.5085 1.36247C71.5085 1.36247 65.8884 1.24157 60.9981 1.2786C56.6738 1.31135 52.9023 1.47655 52.0874 1.51434C51.9808 1.51929 51.9248 1.52205 51.9248 1.52205C51.9248 1.52205 51.814 1.5442 51.7909 1.73073C51.7751 1.85843 51.9231 6.50832 51.9231 6.50832C51.9231 6.50832 53.955 6.46401 56.8096 6.28218C56.8149 6.28186 56.6603 6.33715 56.8367 6.2426C56.9141 6.2011 59.6293 6.20212 61.0941 6.18897C63.9577 6.1633 68.9331 6.15315 69.0135 6.2659C69.1253 6.42219 71.4856 6.33274 71.4856 6.33274L71.5085 1.36247Z" fill="#e1500b" fill-rule="nonzero" opacity="1" stroke="none" vectornator:layerName="Curva 1"/>
<path d="M51.9185 5.66794L56.8585 5.69616C56.8585 5.69616 56.8637 6.84215 56.8261 7.03605C56.7918 7.21353 56.7449 12.934 56.8019 16.6512C56.8815 21.8425 57.3894 26.4333 57.3894 26.4333C57.3894 26.4333 57.4008 26.5826 57.3009 26.6554C57.2011 26.7281 56.9899 26.7243 56.9899 26.7243L52.9028 26.5435C52.9028 26.5435 52.7701 26.5825 52.6928 26.49C52.6154 26.3975 52.5934 26.1734 52.5934 26.1734C52.5934 26.1734 52.2233 22.1755 52.0546 17.0491C51.8859 11.9227 51.9185 5.66794 51.9185 5.66794Z" fill="#e1500b" fill-rule="nonzero" opacity="1" stroke="none" vectornator:layerName="Curva 2"/>
<path d="M67.1914 14.9596L61.649 16.1962C61.649 16.1962 66.0978 20.3375 67.5004 22.2591C68.7901 24.0262 71.5085 26.7244 71.5085 26.7244L75.0985 23.6738C75.0985 23.6738 76.1347 23.8678 72.3264 20.6C70.5413 19.0684 67.1914 14.9596 67.1914 14.9596Z" fill="#e1500b" fill-rule="nonzero" opacity="1" stroke="none" vectornator:layerName="Curva 3"/>
</g>
<g opacity="1" vectornator:layerName="Grupo 5">
<path d="M132.161 13.7656C132.693 13.4116 135.267 13.6357 136.791 13.3349C139.882 12.725 144.347 12.4391 145.569 8.58305C145.756 7.98994 146.11 6.56041 146.034 6.46445C145.859 6.24362 146.422 2.81862 146.422 1.60729L148.504 1.54511C148.504 1.54511 148.55 1.53022 148.649 1.61736C149.148 2.0528 150.488 3.29945 150.488 3.29945C150.488 3.29945 151.657 4.3595 152.06 4.75281C152.122 4.8132 152.104 4.88649 152.104 4.88649C152.104 6.19759 148.958 13.0114 145.336 15.0106C141.065 17.3683 137.307 16.4519 132.737 18.1066" fill="#e1500b" fill-rule="nonzero" opacity="1" stroke="none" vectornator:layerName="path 3"/>
<path d="M148.516 1.54068C148.516 1.54068 142.896 1.41978 138.006 1.45682C133.682 1.48957 129.91 1.65476 129.096 1.69255C128.989 1.6975 128.933 1.70027 128.933 1.70027C128.933 1.70027 128.822 1.72241 128.799 1.90893C128.784 2.03664 128.932 6.68657 128.932 6.68657C128.932 6.68657 130.963 6.6422 133.818 6.46037C133.823 6.46005 133.669 6.51534 133.845 6.42079C133.922 6.37935 136.638 6.38037 138.102 6.36722C140.966 6.34149 145.942 6.3314 146.022 6.44415C146.134 6.60038 148.493 6.511 148.493 6.511L148.516 1.54068Z" fill="#e1500b" fill-rule="nonzero" opacity="1" stroke="none" vectornator:layerName="Curva 7"/>
<path d="M128.927 5.84613L133.867 5.87435C133.867 5.87435 133.872 7.02041 133.834 7.21424C133.8 7.39172 133.753 13.1122 133.81 16.8294C133.89 22.0208 134.398 26.6115 134.398 26.6115C134.398 26.6115 134.409 26.7608 134.309 26.8336C134.21 26.9064 133.998 26.9026 133.998 26.9026L129.911 26.7217C129.911 26.7217 129.778 26.7607 129.701 26.6682C129.624 26.5757 129.601 26.3516 129.601 26.3516C129.601 26.3516 129.232 22.3537 129.063 17.2273C128.894 12.101 128.927 5.84613 128.927 5.84613Z" fill="#e1500b" fill-rule="nonzero" opacity="1" stroke="none" vectornator:layerName="Curva 8"/>
<path d="M144.2 15.1378L138.657 16.3744C138.657 16.3744 143.106 20.5157 144.509 22.4374C145.799 24.2045 148.516 26.9026 148.516 26.9026L152.107 23.8519C152.107 23.8519 153.143 24.046 149.334 20.7782C147.549 19.2466 144.2 15.1378 144.2 15.1378Z" fill="#e1500b" fill-rule="nonzero" opacity="1" stroke="none" vectornator:layerName="Curva 9"/>
</g>
<g opacity="1" vectornator:layerName="Grupo 4">
<path d="M100.048 11.7385L95.2221 13.1983C95.2221 13.1983 95.5962 10.9324 95.7341 8.87526C95.872 6.81815 95.5636 4.96387 95.5636 4.96387L95.9237 4.84959L99.7882 5.19517L100.272 5.45189C100.272 5.45189 100.47 7.06095 100.422 9.09955C100.388 10.5559 100.048 11.7385 100.048 11.7385Z" fill="#e1500b" fill-rule="nonzero" opacity="1" stroke="none" vectornator:layerName="path"/>
<path d="M99.965 22.5611C99.6726 22.188 96.4447 21.8925 95.1691 21.1649C94.433 20.7454 93.7032 20.2665 93.1727 19.9546C91.8371 19.1696 90.573 18.1964 89.4653 17.1081C87.0769 14.7622 84.8213 12.1427 83.5999 8.28675C83.4122 7.69364 83.0585 6.26411 83.1345 6.16816C83.3094 5.94732 82.7463 2.52231 82.7463 1.31098L80.6638 1.2488C80.6638 1.2488 80.6191 1.23391 80.5195 1.32105C80.0208 1.75649 78.6801 3.00313 78.6801 3.00313C78.6801 3.00313 77.5111 4.06318 77.1077 4.45649C77.0457 4.51688 77.0642 4.59019 77.0642 4.59019C77.0642 5.90129 78.7421 10.6744 79.2866 11.8388C80.628 14.7052 80.5757 14.5196 82.4929 17.4167C84.3935 20.289 89.0222 24.2097 93.7077 26.1196C95.6594 26.9151 99.4243 27.0337 99.7346 26.5755C99.914 26.3112 100.048 24.6252 100.048 24.6252" fill="#e1500b" fill-rule="nonzero" opacity="1" stroke="none" vectornator:layerName="path"/>
<path d="M80.6516 1.24437C80.6516 1.24437 86.2718 1.12347 91.1622 1.1605C96.052 1.19754 100.235 1.40395 100.235 1.40395C100.235 1.40395 100.346 1.4261 100.369 1.61263C100.385 1.74033 100.372 8.92353 100.372 8.92353C100.372 8.92353 98.2049 6.3459 95.3504 6.16407C95.3453 6.16375 95.4998 6.21904 95.3236 6.12449C95.2463 6.08305 92.5311 6.08401 91.0658 6.07086C88.2024 6.04519 83.2271 6.03504 83.1466 6.14779C83.0349 6.30408 80.6746 6.2147 80.6746 6.2147L80.6516 1.24437Z" fill="#e1500b" fill-rule="nonzero" opacity="1" stroke="none" vectornator:layerName="path"/>
<path d="M91.6775 17.6078C91.6775 17.6078 91.1852 17.3839 90.8245 17.1059C90.1631 16.596 89.0267 15.2125 88.6008 14.4478C88.4004 14.0875 88.9181 14.0014 88.9181 14.0014C88.9181 14.0014 90.843 12.8859 92.7903 11.3938C94.7375 9.90162 96.7077 8.03284 96.7077 8.03284L100.048 11.6308C100.048 11.6308 97.5556 13.5612 95.4634 15.0555C93.3706 16.5497 91.6775 17.6078 91.6775 17.6078Z" fill="#e1500b" fill-rule="nonzero" opacity="1" stroke="none" vectornator:layerName="path"/>
</g>
<g opacity="1" vectornator:layerName="Grupo 3">
<path d="M104.177 16.4595L108.998 14.9809C108.998 14.9809 108.632 17.2482 108.502 19.3059C108.372 21.3635 108.687 23.2166 108.687 23.2166L108.328 23.3323L104.462 23.0017L103.977 22.7469C103.977 22.7469 103.773 21.1386 103.813 19.0999C103.841 17.6435 104.177 16.4595 104.177 16.4595Z" fill="#e1500b" fill-rule="nonzero" opacity="1" stroke="none" vectornator:layerName="Curva 4"/>
<path d="M104.218 5.63665C104.511 6.00861 107.741 6.2915 109.019 7.01415C109.757 7.43073 110.488 7.90675 111.02 8.21659C112.359 8.99644 113.626 9.96469 114.739 11.0486C117.136 13.3853 119.402 15.9958 120.638 19.8471C120.829 20.4394 121.188 21.8676 121.112 21.9638C120.938 22.1853 121.514 25.6081 121.519 26.8194L123.602 26.8735C123.602 26.8735 123.647 26.8882 123.746 26.8007C124.243 26.3633 125.579 25.1115 125.579 25.1115C125.579 25.1115 126.744 24.0468 127.145 23.6519C127.207 23.5913 127.188 23.5181 127.188 23.5181C127.183 22.207 125.487 17.4405 124.938 16.2783C123.585 13.4171 123.638 13.6024 121.71 10.7129C119.798 7.84808 115.153 3.94534 110.461 2.05381C108.506 1.26587 104.741 1.162 104.432 1.62138C104.254 1.88641 104.127 3.57289 104.127 3.57289" fill="#e1500b" fill-rule="nonzero" opacity="1" stroke="none" vectornator:layerName="path 2"/>
<path d="M123.614 26.8779C123.614 26.8779 117.995 27.0207 113.104 27.0027C108.214 26.9848 104.03 26.7947 104.03 26.7947C104.03 26.7947 103.919 26.7729 103.895 26.5865C103.879 26.4589 103.864 19.2757 103.864 19.2757C103.864 19.2757 106.041 21.8449 108.896 22.0155C108.901 22.0159 108.747 21.9611 108.924 22.055C109.001 22.0962 111.716 22.0846 113.181 22.092C116.045 22.1065 121.02 22.0973 121.1 21.9842C121.212 21.8275 123.571 21.9077 123.571 21.9077L123.614 26.8779Z" fill="#e1500b" fill-rule="nonzero" opacity="1" stroke="none" vectornator:layerName="Curva 5"/>
<path d="M112.524 10.5575C112.524 10.5575 113.018 10.7796 113.379 11.0562C114.043 11.5634 115.185 12.9426 115.613 13.7056C115.815 14.0651 115.298 14.1532 115.298 14.1532C115.298 14.1532 113.377 15.2762 111.436 16.7759C109.494 18.2756 107.532 20.1521 107.532 20.1521L104.177 16.5672C104.177 16.5672 106.662 14.627 108.749 13.1246C110.836 11.6222 112.524 10.5575 112.524 10.5575Z" fill="#e1500b" fill-rule="nonzero" opacity="1" stroke="none" vectornator:layerName="Curva 6"/>
</g>
<g opacity="1" vectornator:layerName="Grupo 1">
<path d="M47.4859 23.053C47.549 22.9674 47.6296 22.8173 47.4566 22.7745C47.3465 22.7473 44.3352 21.8792 42.6562 21.5664C40.8107 21.2225 38.5778 21.017 36.9584 20.8233C35.0638 20.5967 33.9609 20.16 33.3676 19.3978C32.8346 18.7129 32.1297 17.257 31.7166 15.4894C31.3347 13.8548 30.5752 6.36179 30.7655 6.19133C30.9533 6.02329 30.5682 5.59809 30.4818 5.34719L29.6465 1.3259C29.6465 1.3259 29.6032 1.32982 29.5372 1.36752C29.4232 1.4327 27.4666 3.07495 27.4666 3.07495C27.4666 3.07495 25.6782 4.5226 25.545 4.63946C25.4746 4.70121 25.4823 4.74289 25.4823 4.74289C25.4823 6.05004 26.4896 13.8467 26.8359 15.106C27.6678 18.1304 27.5236 20.0815 29.6305 22.9697C32.5897 27.0261 39.2738 25.4507 44.2962 27.1004C44.3549 27.1197 44.4846 27.1742 44.6378 27.0269C45.2493 26.4392 46.3906 24.7115 46.3906 24.7115" fill="#e1500b" fill-rule="nonzero" opacity="1" stroke="none" vectornator:layerName="path"/>
<path d="M29.6305 1.32759C29.6305 1.32759 35.0583 1.19565 39.8005 1.23257C44.5426 1.2695 48.5993 1.47529 48.5993 1.47529C48.5993 1.47529 48.6793 1.49 48.6551 1.64094C48.6405 1.73182 48.607 5.96571 48.6408 6.32215C48.6546 6.46886 48.6009 6.44651 48.6009 6.44651C48.6009 6.44651 44.4499 6.17192 39.7073 6.12812C36.2513 6.09627 30.8078 6.18973 30.6974 6.23219C30.5196 6.30069 29.6305 6.27152 29.6305 6.27152L29.6305 1.32759Z" fill="#e1500b" fill-rule="nonzero" opacity="1" stroke="none" vectornator:layerName="path"/>
</g>
</g>
</g>
</svg>
