<?xml version="1.0" encoding="UTF-8" standalone="no"?>
<!DOCTYPE svg PUBLIC "-//W3C//DTD SVG 1.1//EN" "http://www.w3.org/Graphics/SVG/1.1/DTD/svg11.dtd">
<!-- Created with Vectornator (http://vectornator.io/) -->
<svg height="100%" stroke-miterlimit="10" style="fill-rule:nonzero;clip-rule:evenodd;stroke-linecap:round;stroke-linejoin:round;" version="1.1" viewBox="0 0 273.586 48.8502" width="100%" xml:space="preserve" xmlns="http://www.w3.org/2000/svg" xmlns:vectornator="http://vectornator.io" xmlns:xlink="http://www.w3.org/1999/xlink">
<defs/>
<g id="Capa-1" vectornator:layerName="Capa 1">
<g opacity="1" vectornator:layerName="Grupo 8">
<g opacity="1" vectornator:layerName="Grupo 7">
<path d="M8.33698 23.6301C9.16976 23.0755 13.202 23.4264 15.5886 22.9555C20.4305 22.0001 27.4244 21.5522 29.3377 15.5124C29.632 14.5835 30.186 12.3444 30.0668 12.1941C29.7926 11.8482 30.6748 6.48351 30.6748 4.58618L33.9365 4.48879C33.9365 4.48879 34.0067 4.46547 34.163 4.60195C34.9441 5.284 37.0435 7.23664 37.0435 7.23664C37.0435 7.23664 38.8745 8.89702 39.5063 9.51307C39.6033 9.60766 39.5746 9.72247 39.5746 9.72247C39.5746 11.7761 34.6473 22.4487 28.9744 25.58C22.2838 29.2731 16.398 27.8377 9.2396 30.4295" fill="#f5891d" fill-rule="nonzero" opacity="1" stroke="none" vectornator:layerName="path"/>
<path d="M33.9553 4.48185C33.9553 4.48185 25.1525 4.29248 17.4929 4.35049C10.7196 4.40179 4.81226 4.66054 3.5359 4.71973C3.3689 4.72748 3.28118 4.73181 3.28118 4.73181C3.28118 4.73181 3.10764 4.7665 3.0715 5.05866C3.04676 5.25868 3.27854 12.5419 3.27854 12.5419C3.27854 12.5419 6.46117 12.4725 10.9323 12.1877C10.9407 12.1872 10.6986 12.2738 10.9749 12.1257C11.0961 12.0607 15.349 12.0623 17.6434 12.0417C22.1289 12.0015 29.9215 11.9856 30.0479 12.1622C30.2231 12.407 33.9193 12.2669 33.9193 12.2669L33.9553 4.48185Z" fill="#f5891d" fill-rule="nonzero" opacity="1" stroke="none"/>
<path d="M3.27138 11.2256L11.0089 11.2698C11.0089 11.2698 11.0171 13.0648 10.9583 13.3685C10.9045 13.6465 10.8311 22.6066 10.9204 28.4289C11.0451 36.5602 11.8405 43.7509 11.8405 43.7509C11.8405 43.7509 11.8584 43.9847 11.7019 44.0987C11.5455 44.2126 11.2149 44.2067 11.2149 44.2067L4.81312 43.9234C4.81312 43.9234 4.60531 43.9845 4.48415 43.8396C4.363 43.6947 4.32849 43.3437 4.32849 43.3437C4.32849 43.3437 3.74882 37.0817 3.48454 29.0522C3.22026 21.0226 3.27138 11.2256 3.27138 11.2256Z" fill="#f5891d" fill-rule="nonzero" opacity="1" stroke="none"/>
<path d="M27.1935 25.7794L18.5125 27.7162C18.5125 27.7162 25.4811 34.2029 27.6779 37.2127C29.6981 39.9806 33.9553 44.2068 33.9553 44.2068L39.5786 39.4285C39.5786 39.4285 41.2015 39.7324 35.2362 34.614C32.4404 32.2151 27.1935 25.7794 27.1935 25.7794Z" fill="#f5891d" fill-rule="nonzero" opacity="1" stroke="none"/>
</g>
<g opacity="1" vectornator:layerName="Grupo 6">
<path d="M89.4563 23.6301C90.2891 23.0755 94.3214 23.4264 96.708 22.9555C101.55 22.0001 108.544 21.5522 110.457 15.5124C110.751 14.5835 111.305 12.3444 111.186 12.1941C110.912 11.8482 111.794 6.48351 111.794 4.58618L115.056 4.48879C115.056 4.48879 115.126 4.46547 115.282 4.60195C116.063 5.284 118.163 7.23664 118.163 7.23664C118.163 7.23664 119.994 8.89702 120.626 9.51307C120.723 9.60766 120.694 9.72247 120.694 9.72247C120.694 11.7761 115.767 22.4487 110.094 25.58C103.403 29.2731 97.5173 27.8377 90.3589 30.4295" fill="#f5891d" fill-rule="nonzero" opacity="1" stroke="none" vectornator:layerName="path 1"/>
<path d="M115.075 4.48185C115.075 4.48185 106.272 4.29248 98.6123 4.35049C91.839 4.40179 85.9316 4.66054 84.6552 4.71973C84.4882 4.72748 84.4005 4.73181 84.4005 4.73181C84.4005 4.73181 84.227 4.7665 84.1908 5.05866C84.1661 5.25868 84.3979 12.5419 84.3979 12.5419C84.3979 12.5419 87.5805 12.4725 92.0517 12.1877C92.06 12.1872 91.8179 12.2738 92.0942 12.1257C92.2154 12.0607 96.4683 12.0623 98.7627 12.0417C103.248 12.0015 111.041 11.9856 111.167 12.1622C111.342 12.407 115.039 12.2669 115.039 12.2669L115.075 4.48185Z" fill="#f5891d" fill-rule="nonzero" opacity="1" stroke="none" vectornator:layerName="Curva 1"/>
<path d="M84.3907 11.2256L92.1283 11.2698C92.1283 11.2698 92.1364 13.0648 92.0776 13.3685C92.0238 13.6465 91.9504 22.6066 92.0397 28.4289C92.1644 36.5602 92.9599 43.7509 92.9599 43.7509C92.9599 43.7509 92.9777 43.9847 92.8213 44.0987C92.6649 44.2126 92.3342 44.2067 92.3342 44.2067L85.9324 43.9234C85.9324 43.9234 85.7246 43.9845 85.6035 43.8396C85.4823 43.6947 85.4478 43.3437 85.4478 43.3437C85.4478 43.3437 84.8681 37.0817 84.6039 29.0522C84.3396 21.0226 84.3907 11.2256 84.3907 11.2256Z" fill="#f5891d" fill-rule="nonzero" opacity="1" stroke="none" vectornator:layerName="Curva 2"/>
<path d="M108.313 25.7794L99.6318 27.7162C99.6318 27.7162 106.6 34.2029 108.797 37.2127C110.817 39.9806 115.075 44.2068 115.075 44.2068L120.698 39.4285C120.698 39.4285 122.321 39.7324 116.356 34.614C113.56 32.2151 108.313 25.7794 108.313 25.7794Z" fill="#f5891d" fill-rule="nonzero" opacity="1" stroke="none" vectornator:layerName="Curva 3"/>
</g>
<g opacity="1" vectornator:layerName="Grupo 5">
<path d="M210.076 23.9092C210.909 23.3546 214.941 23.7056 217.328 23.2346C222.17 22.2792 229.163 21.8314 231.077 15.7916C231.371 14.8626 231.925 12.6235 231.806 12.4732C231.532 12.1273 232.414 6.76265 232.414 4.86532L235.675 4.76792C235.675 4.76792 235.746 4.74461 235.902 4.88109C236.683 5.56314 238.782 7.51578 238.782 7.51578C238.782 7.51578 240.613 9.17616 241.245 9.79221C241.342 9.8868 241.314 10.0016 241.314 10.0016C241.314 12.0552 236.386 22.7278 230.713 25.8592C224.023 29.5522 218.137 28.1168 210.979 30.7086" fill="#f5891d" fill-rule="nonzero" opacity="1" stroke="none" vectornator:layerName="path 3"/>
<path d="M235.694 4.76099C235.694 4.76099 226.891 4.57162 219.232 4.62963C212.459 4.68093 206.551 4.93968 205.275 4.99887C205.108 5.00662 205.02 5.01095 205.02 5.01095C205.02 5.01095 204.847 5.04564 204.81 5.33779C204.786 5.53782 205.018 12.8211 205.018 12.8211C205.018 12.8211 208.2 12.7516 212.671 12.4668C212.68 12.4663 212.438 12.5529 212.714 12.4048C212.835 12.3399 217.088 12.3415 219.382 12.3209C223.868 12.2806 231.661 12.2648 231.787 12.4414C231.962 12.6861 235.658 12.5461 235.658 12.5461L235.694 4.76099Z" fill="#f5891d" fill-rule="nonzero" opacity="1" stroke="none" vectornator:layerName="Curva 7"/>
<path d="M205.01 11.5047L212.748 11.5489C212.748 11.5489 212.756 13.344 212.697 13.6476C212.643 13.9256 212.57 22.8857 212.659 28.708C212.784 36.8394 213.58 44.03 213.58 44.03C213.58 44.03 213.597 44.2638 213.441 44.3778C213.285 44.4918 212.954 44.4859 212.954 44.4859L206.552 44.2026C206.552 44.2026 206.344 44.2637 206.223 44.1187C206.102 43.9738 206.067 43.6228 206.067 43.6228C206.067 43.6228 205.488 37.3608 205.224 29.3313C204.959 21.3018 205.01 11.5047 205.01 11.5047Z" fill="#f5891d" fill-rule="nonzero" opacity="1" stroke="none" vectornator:layerName="Curva 8"/>
<path d="M228.933 26.0585L220.251 27.9953C220.251 27.9953 227.22 34.482 229.417 37.4919C231.437 40.2598 235.694 44.4859 235.694 44.4859L241.318 39.7076C241.318 39.7076 242.941 40.0116 236.975 34.8932C234.179 32.4942 228.933 26.0585 228.933 26.0585Z" fill="#f5891d" fill-rule="nonzero" opacity="1" stroke="none" vectornator:layerName="Curva 9"/>
</g>
<g opacity="1" vectornator:layerName="Grupo 4">
<path d="M159.777 20.734L152.218 23.0205C152.218 23.0205 152.804 19.4714 153.02 16.2493C153.236 13.0272 152.753 10.1228 152.753 10.1228L153.317 9.9438L159.37 10.4851L160.128 10.8872C160.128 10.8872 160.438 13.4075 160.363 16.6006C160.31 18.8817 159.777 20.734 159.777 20.734Z" fill="#f5891d" fill-rule="nonzero" opacity="1" stroke="none"/>
<path d="M159.647 37.6857C159.189 37.1013 154.133 36.6385 152.135 35.4988C150.982 34.8418 149.839 34.0917 149.008 33.6031C146.916 32.3735 144.936 30.8492 143.201 29.1446C139.46 25.4701 135.927 21.3672 134.014 15.3275C133.72 14.3985 133.166 12.1594 133.285 12.0091C133.559 11.6632 132.677 6.29853 132.677 4.4012L129.415 4.30381C129.415 4.30381 129.345 4.28049 129.189 4.41697C128.408 5.09902 126.308 7.05166 126.308 7.05166C126.308 7.05166 124.477 8.71204 123.845 9.32809C123.748 9.42268 123.777 9.5375 123.777 9.5375C123.777 11.5911 126.405 19.0673 127.258 20.8911C129.359 25.3808 129.277 25.0902 132.28 29.6279C135.257 34.1268 142.507 40.268 149.846 43.2594C152.903 44.5055 158.8 44.6912 159.286 43.9735C159.567 43.5595 159.777 40.9187 159.777 40.9187" fill="#f5891d" fill-rule="nonzero" opacity="1" stroke="none" vectornator:layerName="path"/>
<path d="M129.396 4.29687C129.396 4.29687 138.199 4.1075 145.859 4.16551C153.518 4.22352 160.07 4.54683 160.07 4.54683C160.07 4.54683 160.244 4.58152 160.28 4.87368C160.305 5.0737 160.285 16.3249 160.285 16.3249C160.285 16.3249 156.89 12.2875 152.419 12.0027C152.411 12.0022 152.653 12.0888 152.377 11.9407C152.256 11.8758 148.003 11.8773 145.708 11.8567C141.223 11.8165 133.43 11.8006 133.304 11.9772C133.129 12.222 129.432 12.082 129.432 12.082L129.396 4.29687Z" fill="#f5891d" fill-rule="nonzero" opacity="1" stroke="none"/>
<path d="M146.666 29.9273C146.666 29.9273 145.895 29.5765 145.33 29.1411C144.294 28.3425 142.514 26.1754 141.847 24.9777C141.533 24.4133 142.344 24.2785 142.344 24.2785C142.344 24.2785 145.359 22.5312 148.409 20.1941C151.459 17.8569 154.545 14.9298 154.545 14.9298L159.777 20.5653C159.777 20.5653 155.873 23.589 152.596 25.9295C149.318 28.27 146.666 29.9273 146.666 29.9273Z" fill="#f5891d" fill-rule="nonzero" opacity="1" stroke="none"/>
</g>
<g opacity="1" vectornator:layerName="Grupo 3">
<path d="M166.244 28.1287L173.795 25.8127C173.795 25.8127 173.222 29.364 173.018 32.587C172.815 35.8099 173.309 38.7124 173.309 38.7124L172.746 38.8936L166.691 38.3759L165.931 37.9767C165.931 37.9767 165.612 35.4577 165.674 32.2643C165.718 29.9831 166.244 28.1287 166.244 28.1287Z" fill="#f5891d" fill-rule="nonzero" opacity="1" stroke="none" vectornator:layerName="Curva 4"/>
<path d="M166.308 11.1766C166.768 11.7592 171.826 12.2023 173.829 13.3342C174.984 13.9867 176.13 14.7323 176.963 15.2176C179.06 16.4391 181.045 17.9557 182.787 19.6535C186.543 23.3134 190.091 27.4024 192.028 33.4347C192.326 34.3625 192.889 36.5994 192.77 36.7502C192.497 37.0971 193.4 42.4583 193.408 44.3556L196.67 44.4403C196.67 44.4403 196.74 44.4634 196.896 44.3263C197.674 43.6412 199.766 41.6804 199.766 41.6804C199.766 41.6804 201.591 40.0128 202.22 39.3943C202.317 39.2994 202.287 39.1847 202.287 39.1847C202.279 37.1311 199.622 29.6652 198.762 27.8448C196.644 23.3633 196.727 23.6535 193.707 19.1276C190.712 14.6404 183.437 8.52746 176.087 5.56471C173.025 4.33055 167.128 4.16786 166.644 4.88739C166.365 5.30251 166.166 7.94408 166.166 7.94408" fill="#f5891d" fill-rule="nonzero" opacity="1" stroke="none" vectornator:layerName="path 2"/>
<path d="M196.689 44.4472C196.689 44.4472 187.887 44.6709 180.227 44.6427C172.567 44.6146 166.014 44.3169 166.014 44.3169C166.014 44.3169 165.84 44.2828 165.803 43.9908C165.777 43.7909 165.754 32.5397 165.754 32.5397C165.754 32.5397 169.164 36.5639 173.636 36.8312C173.644 36.8317 173.402 36.746 173.679 36.893C173.8 36.9575 178.053 36.9393 180.347 36.951C184.833 36.9737 192.626 36.9592 192.751 36.7821C192.926 36.5367 196.622 36.6623 196.622 36.6623L196.689 44.4472Z" fill="#f5891d" fill-rule="nonzero" opacity="1" stroke="none" vectornator:layerName="Curva 5"/>
<path d="M179.319 18.8843C179.319 18.8843 180.092 19.2321 180.658 19.6653C181.697 20.4598 183.486 22.62 184.157 23.8151C184.473 24.3782 183.663 24.5162 183.663 24.5162C183.663 24.5162 180.655 26.2752 177.614 28.6243C174.573 30.9733 171.499 33.9124 171.499 33.9124L166.245 28.2973C166.245 28.2973 170.137 25.2584 173.405 22.9052C176.674 20.5519 179.319 18.8843 179.319 18.8843Z" fill="#f5891d" fill-rule="nonzero" opacity="1" stroke="none" vectornator:layerName="Curva 6"/>
</g>
<g opacity="1" vectornator:layerName="Grupo 1">
<path d="M77.4478 38.4562C77.5467 38.3221 77.6729 38.087 77.4019 38.02C77.2295 37.9773 72.5128 36.6177 69.8829 36.1277C66.9923 35.589 63.4948 35.2671 60.9583 34.9638C57.9908 34.6089 56.2634 33.9249 55.3341 32.7309C54.4992 31.6582 53.3951 29.3778 52.7481 26.6092C52.1498 24.0489 50.9602 12.3124 51.2583 12.0454C51.5524 11.7822 50.9493 11.1162 50.8139 10.7232L49.5056 4.42457C49.5056 4.42457 49.4377 4.43072 49.3344 4.48976C49.1558 4.59186 46.0912 7.16414 46.0912 7.16414C46.0912 7.16414 43.29 9.43163 43.0814 9.61468C42.9711 9.71139 42.9831 9.77667 42.9831 9.77667C42.9831 11.8241 44.5608 24.0361 45.1033 26.0087C46.4063 30.7458 46.1804 33.8018 49.4806 38.3257C54.1156 44.6794 64.585 42.2117 72.4517 44.7957C72.5437 44.8259 72.7468 44.9113 72.9868 44.6806C73.9446 43.7601 75.7323 41.0539 75.7323 41.0539" fill="#f5891d" fill-rule="nonzero" opacity="1" stroke="none" vectornator:layerName="path"/>
<path d="M49.4806 4.42722C49.4806 4.42722 57.9822 4.22056 65.41 4.27839C72.8377 4.33623 79.1917 4.65856 79.1917 4.65856C79.1917 4.65856 79.317 4.6816 79.2791 4.91803C79.2563 5.06038 79.2039 11.692 79.2567 12.2503C79.2784 12.4801 79.1942 12.4451 79.1942 12.4451C79.1942 12.4451 72.6924 12.015 65.264 11.9464C59.8508 11.8965 51.3246 12.0429 51.1516 12.1094C50.8731 12.2167 49.4806 12.171 49.4806 12.171L49.4806 4.42722Z" fill="#f5891d" fill-rule="nonzero" opacity="1" stroke="none"/>
</g>
</g>
</g>
</svg>
