<?xml version="1.0" encoding="UTF-8" standalone="no"?>
<!DOCTYPE svg PUBLIC "-//W3C//DTD SVG 1.1//EN" "http://www.w3.org/Graphics/SVG/1.1/DTD/svg11.dtd">
<!-- Created with Vectornator (http://vectornator.io/) -->
<svg height="100%" stroke-miterlimit="10" style="fill-rule:nonzero;clip-rule:evenodd;stroke-linecap:round;stroke-linejoin:round;" version="1.1" viewBox="0 0 294.988 82.9642" width="100%" xml:space="preserve" xmlns="http://www.w3.org/2000/svg" xmlns:vectornator="http://vectornator.io" xmlns:xlink="http://www.w3.org/1999/xlink">
<defs/>
<g id="Capa-1" vectornator:layerName="Capa 1">
<g opacity="1">
<path d="M97.5699 56.4007C97.6678 56.268 97.7927 56.0353 97.5244 55.9689C97.3537 55.9267 93.2437 54.2976 90.8411 53.1832C88.5013 52.098 85.7621 50.3785 83.8738 48.696C79.8034 45.0691 78.6937 43.3464 75.3127 38.7375C73.7731 36.6386 71.3467 30.5179 71.6418 30.2537C71.9329 29.993 71.3358 29.3338 71.2018 28.9446L69.9066 22.7089C69.9066 22.7089 69.8393 22.715 69.7371 22.7734C69.5603 22.8745 66.5263 25.4211 66.5263 25.4211C66.5263 25.4211 63.753 27.666 63.5465 27.8472C63.4374 27.9429 63.4492 28.0076 63.4492 28.0076C63.4492 30.0346 66.1737 37.827 67.1021 39.6271C69.3874 44.0586 69.2036 43.736 72.4708 48.2149C77.0595 54.5051 84.8354 60.1188 92.6236 62.677C92.7147 62.7069 92.9157 62.7915 93.1534 62.563C94.1016 61.6518 95.8714 58.9725 95.8714 58.9725" fill="#f5891d" fill-rule="nonzero" opacity="1" stroke="none" vectornator:layerName="path"/>
<path d="M69.8819 22.7115C69.8819 22.7115 78.2986 22.5069 85.6522 22.5642C93.0058 22.6214 99.2963 22.9405 99.2963 22.9405C99.2963 22.9405 99.4204 22.9634 99.3829 23.1974C99.3603 23.3384 99.3084 29.9037 99.3606 30.4565C99.3822 30.684 99.2988 30.6494 99.2988 30.6494C99.2988 30.6494 92.8619 30.2235 85.5077 30.1557C80.1485 30.1062 71.7074 30.2511 71.5362 30.3171C71.2604 30.4232 69.8819 30.378 69.8819 30.378L69.8819 22.7115Z" fill="#f5891d" fill-rule="nonzero" opacity="1" stroke="none"/>
<path d="M27.8079 56.1617C27.8079 56.1617 27.5626 55.7648 27.9363 55.516C28.7691 54.9614 29.2359 55.0091 31.2346 53.8694C32.3868 53.2124 33.5303 52.4624 34.3615 51.9737C36.4533 50.7442 38.4327 49.2198 40.1682 47.5152C43.9095 43.8407 47.4419 39.7379 49.3552 33.6981C49.6495 32.7691 50.2036 30.53 50.0844 30.3797C49.8101 30.0338 50.6923 24.6692 50.6923 22.7718L53.954 22.6744C53.954 22.6744 54.0242 22.6511 54.1805 22.7876C54.9616 23.4696 57.061 25.4223 57.061 25.4223C57.061 25.4223 58.892 27.0827 59.5238 27.6987C59.6208 27.7933 59.5921 27.9081 59.5921 27.9081C59.5921 29.9618 56.9642 37.4379 56.1109 39.2617C54.0104 43.7514 54.0926 43.4609 51.0896 47.9985C46.872 54.3714 39.7046 59.8799 32.5462 62.4717C32.1284 62.6231 30.089 59.4145 30.089 59.4145" fill="#f5891d" fill-rule="nonzero" opacity="1" stroke="none" vectornator:layerName="path"/>
<path d="M53.9728 22.6675C53.9728 22.6675 45.17 22.4781 37.5104 22.5361C30.7372 22.5874 24.8298 22.8462 23.5534 22.9054C23.3864 22.9131 23.2987 22.9175 23.2987 22.9175C23.2987 22.9175 23.1252 22.9521 23.089 23.2443C23.0643 23.4443 23.2961 30.7276 23.2961 30.7276C23.2961 30.7276 26.4787 30.6581 30.9499 30.3734C30.9582 30.3728 30.7161 30.4594 30.9924 30.3114C31.1136 30.2464 35.3665 30.248 37.6609 30.2274C42.1465 30.1871 49.939 30.1713 50.0655 30.3479C50.2406 30.5926 53.9368 30.4526 53.9368 30.4526L53.9728 22.6675Z" fill="#f5891d" fill-rule="nonzero" opacity="1" stroke="none"/>
<path d="M23.2889 29.4112L31.0265 29.4312C31.0265 29.4312 31.0346 30.2433 30.9758 30.3807C30.922 30.5065 30.8486 34.5601 30.9379 37.1941C31.0626 40.8728 31.8581 44.1259 31.8581 44.1259C31.8581 44.1259 31.8759 44.2317 31.7195 44.2833C31.5631 44.3348 31.2324 44.3321 31.2324 44.3321L24.8306 44.204C24.8306 44.204 24.6228 44.2316 24.5017 44.166C24.3805 44.1005 24.346 43.9417 24.346 43.9417C24.346 43.9417 23.7663 41.1087 23.5021 37.4761C23.2378 33.8435 23.2889 29.4112 23.2889 29.4112Z" fill="#f5891d" fill-rule="nonzero" opacity="1" stroke="none"/>
<path d="M51.9342 46.3996L47.1292 52.3382C47.1292 52.3382 50.5246 54.7195 53.3855 57.107C56.2464 59.4946 58.3494 62.1307 58.3494 62.1307L58.8953 61.8697L62.6882 57.1216L62.8827 56.2625C62.8827 56.2625 60.9808 54.0535 58.2437 51.5877C55.5066 49.122 51.9342 46.3996 51.9342 46.3996Z" fill="#f5891d" fill-rule="nonzero" opacity="1" stroke="none"/>
<g opacity="1">
<path d="M107.966 56.1617C107.966 56.1617 107.721 55.7648 108.095 55.516C108.927 54.9614 109.394 55.0091 111.393 53.8694C112.545 53.2124 113.689 52.4624 114.52 51.9737C116.612 50.7442 118.591 49.2198 120.327 47.5152C124.068 43.8407 127.6 39.7379 129.514 33.6981C129.808 32.7691 130.362 30.53 130.243 30.3797C129.968 30.0338 130.851 24.6692 130.851 22.7718L134.112 22.6744C134.112 22.6744 134.183 22.6511 134.339 22.7876C135.12 23.4696 137.219 25.4223 137.219 25.4223C137.219 25.4223 139.05 27.0827 139.682 27.6987C139.779 27.7933 139.75 27.9081 139.75 27.9081C139.75 29.9618 137.123 37.4379 136.269 39.2617C134.169 43.7514 134.251 43.4609 131.248 47.9985C127.03 54.3714 119.863 59.8799 112.705 62.4717C112.287 62.6231 110.247 59.4145 110.247 59.4145" fill="#f5891d" fill-rule="nonzero" opacity="1" stroke="none" vectornator:layerName="path"/>
<path d="M134.131 22.6675C134.131 22.6675 125.328 22.4781 117.669 22.5361C110.009 22.5941 103.457 22.9175 103.457 22.9175C103.457 22.9175 103.284 22.9521 103.247 23.2443C103.223 23.4443 103.454 30.7276 103.454 30.7276C103.454 30.7276 106.637 30.6581 111.108 30.3734C111.117 30.3728 110.874 30.4594 111.151 30.3114C111.272 30.2464 115.525 30.248 117.819 30.2274C122.305 30.1871 130.097 30.1713 130.224 30.3479C130.399 30.5926 134.095 30.4526 134.095 30.4526L134.131 22.6675Z" fill="#f5891d" fill-rule="nonzero" opacity="1" stroke="none"/>
<path d="M103.447 29.4112L111.185 29.4312C111.185 29.4312 111.193 30.2433 111.134 30.3807C111.08 30.5065 111.007 34.5601 111.096 37.1941C111.221 40.8728 112.016 44.1259 112.016 44.1259C112.016 44.1259 112.034 44.2317 111.878 44.2833C111.721 44.3348 111.391 44.3321 111.391 44.3321L104.989 44.204C104.989 44.204 104.781 44.2316 104.66 44.166C104.539 44.1005 104.504 43.9417 104.504 43.9417C104.504 43.9417 103.925 41.1087 103.66 37.4761C103.396 33.8435 103.447 29.4112 103.447 29.4112Z" fill="#f5891d" fill-rule="nonzero" opacity="1" stroke="none"/>
<path d="M132.093 46.3996L127.288 52.3382C127.288 52.3382 130.683 54.7195 133.544 57.107C136.405 59.4946 138.508 62.1307 138.508 62.1307L139.054 61.8697L142.847 57.1216L143.041 56.2625C143.041 56.2625 141.139 54.0535 138.402 51.5877C135.665 49.122 132.093 46.3996 132.093 46.3996Z" fill="#f5891d" fill-rule="nonzero" opacity="1" stroke="none"/>
</g>
<path d="M179.695 41.8157L172.177 41.193C172.177 41.193 172.763 37.6439 172.979 34.4218C173.196 31.1997 172.713 28.2953 172.713 28.2953L173.276 28.1163L179.329 28.6576L180.088 29.0597C180.088 29.0597 180.397 31.58 180.322 34.7731C180.269 37.0541 180.059 39.7748 179.894 41.0831C179.828 41.6062 179.695 41.8157 179.695 41.8157Z" fill="#f5891d" fill-rule="nonzero" opacity="1" stroke="none"/>
<path d="M179.606 55.8582C179.148 55.2737 174.093 54.811 172.094 53.6713C170.942 53.0143 169.798 52.2642 168.967 51.7756C166.875 50.546 164.896 49.0217 163.16 47.3171C159.419 43.6426 155.887 39.5397 153.973 33.4999C153.679 32.571 153.125 30.3319 153.244 30.1816C153.518 29.8357 152.636 24.471 152.636 22.5737L149.374 22.4763C149.374 22.4763 149.304 22.453 149.148 22.5895C148.367 23.2715 146.267 25.2241 146.267 25.2241C146.267 25.2241 144.436 26.8845 143.805 27.5006C143.708 27.5952 143.736 27.71 143.736 27.71C143.736 29.7636 146.364 37.2398 147.218 39.0636C149.318 43.5533 149.236 43.2627 152.239 47.8004C155.216 52.2992 162.467 58.4405 169.805 61.4319C172.862 62.678 178.759 62.8637 179.246 62.146C179.526 61.732 179.736 59.0912 179.736 59.0912" fill="#f5891d" fill-rule="nonzero" opacity="1" stroke="none" vectornator:layerName="path"/>
<path d="M149.356 22.4694C149.356 22.4694 158.158 22.28 165.818 22.338C173.478 22.396 180.03 22.7193 180.03 22.7193C180.03 22.7193 180.203 22.754 180.239 23.0462C180.264 23.2462 180.032 30.5294 180.032 30.5294C180.032 30.5294 176.85 30.46 172.379 30.1752C172.37 30.1747 172.612 30.2613 172.336 30.1132C172.215 30.0482 167.962 30.0498 165.668 30.0292C161.182 29.989 153.389 29.9731 153.263 30.1497C153.088 30.3945 149.392 30.2545 149.392 30.2545L149.356 22.4694Z" fill="#f5891d" fill-rule="nonzero" opacity="1" stroke="none"/>
<path d="M175.629 46.7725C175.629 46.7725 174.786 46.6804 174.114 46.4432C172.88 46.008 170.512 44.5056 169.505 43.5759C169.03 43.1379 169.758 42.7566 169.758 42.7566C169.758 42.7566 171.441 41.9278 172.201 40.3186C172.68 39.3021 172.928 38.9505 173.289 38.5956C174.663 37.2457 175.466 35.5098 175.466 35.5098L175.897 35.8569L179.952 40.7839C179.952 40.7839 179.919 41.0125 179.841 41.4579C179.802 41.6787 179.144 42.9381 177.872 44.3828C176.601 45.8275 175.629 46.7725 175.629 46.7725Z" fill="#f5891d" fill-rule="nonzero" opacity="1" stroke="none"/>
<g opacity="1">
<path d="M186.707 43.8953L194.226 44.5177C194.226 44.5177 193.652 47.9139 193.447 50.9983C193.242 54.0826 193.735 56.8653 193.735 56.8653L193.172 57.0347L187.119 56.4954L186.359 56.1077C186.359 56.1077 186.041 53.6935 186.105 50.6364C186.15 48.4525 186.351 45.8482 186.511 44.5961C186.576 44.0954 186.707 43.8953 186.707 43.8953Z" fill="#f5891d" fill-rule="nonzero" opacity="1" stroke="none"/>
<path d="M186.842 29.2928C187.3 29.8773 192.356 30.34 194.355 31.4797C195.507 32.1367 196.65 32.8868 197.482 33.3754C199.573 34.605 201.553 36.1293 203.288 37.8339C207.03 41.5084 210.562 45.6113 212.475 51.651C212.77 52.58 213.324 54.8191 213.204 54.9694C212.93 55.3153 213.812 60.68 213.812 62.5773L217.074 62.6747C217.074 62.6747 217.144 62.698 217.301 62.5615C218.082 61.8795 220.181 59.9269 220.181 59.9269C220.181 59.9269 222.012 58.2665 222.644 57.6504C222.741 57.5558 222.712 57.441 222.712 57.441C222.712 55.3874 220.084 47.9112 219.231 46.0874C217.13 41.5977 217.213 41.8883 214.21 37.3506C211.232 32.8518 203.982 26.7105 196.643 23.7191C193.586 22.473 187.689 22.2873 187.203 23.005C186.922 23.419 186.712 26.0598 186.712 26.0598" fill="#f5891d" fill-rule="nonzero" opacity="1" stroke="none" vectornator:layerName="path"/>
<path d="M217.093 62.6816C217.093 62.6816 208.29 62.871 200.63 62.813C192.971 62.755 186.419 62.4317 186.419 62.4317C186.419 62.4317 186.245 62.397 186.209 62.1048C186.184 61.9048 186.416 54.6216 186.416 54.6216C186.416 54.6216 189.599 54.691 194.07 54.9758C194.078 54.9763 193.836 54.8897 194.112 55.0378C194.234 55.1028 198.487 55.1012 200.781 55.1218C205.266 55.162 213.059 55.1779 213.186 55.0013C213.361 54.7565 217.057 54.8965 217.057 54.8965L217.093 62.6816Z" fill="#f5891d" fill-rule="nonzero" opacity="1" stroke="none"/>
<path d="M191.051 38.1395C191.051 38.1395 191.894 38.2317 192.566 38.4689C193.8 38.904 196.168 40.4065 197.175 41.3361C197.65 41.7742 196.922 42.1554 196.922 42.1554C196.922 42.1554 195.239 42.9842 194.48 44.5935C194 45.61 193.752 45.9615 193.391 46.3165C192.017 47.6664 191.214 49.4023 191.214 49.4023L190.783 49.0552L186.728 44.1282C186.728 44.1282 186.761 43.8996 186.839 43.4542C186.878 43.2334 187.536 41.974 188.808 40.5293C190.079 39.0846 191.051 38.1395 191.051 38.1395Z" fill="#f5891d" fill-rule="nonzero" opacity="1" stroke="none"/>
</g>
<g opacity="1">
<path d="M227.91 56.0773C227.91 56.0773 227.665 55.6804 228.038 55.4315C228.871 54.8769 229.338 54.9247 231.337 53.785C232.489 53.128 233.632 52.3779 234.464 51.8893C236.555 50.6597 238.535 49.1354 240.27 47.4308C244.012 43.7563 247.544 39.6534 249.457 33.6137C249.752 32.6847 250.306 30.4456 250.186 30.2953C249.912 29.9494 250.794 24.5847 250.794 22.6874L254.056 22.59C254.056 22.59 254.126 22.5667 254.283 22.7032C255.064 23.3852 257.163 25.3379 257.163 25.3379C257.163 25.3379 258.994 26.9982 259.626 27.6143C259.723 27.7089 259.694 27.8237 259.694 27.8237C259.694 29.8773 257.066 37.3535 256.213 39.1773C254.112 43.667 254.195 43.3764 251.192 47.9141C246.974 54.287 239.807 59.7955 232.648 62.3872C232.23 62.5386 230.191 59.3301 230.191 59.3301" fill="#f5891d" fill-rule="nonzero" opacity="1" stroke="none" vectornator:layerName="path"/>
<path d="M254.075 22.5831C254.075 22.5831 245.272 22.3937 237.613 22.4517C229.953 22.5097 223.401 22.833 223.401 22.833C223.401 22.833 223.227 22.8677 223.191 23.1599C223.166 23.3599 223.398 30.6431 223.398 30.6431C223.398 30.6431 226.581 30.5737 231.052 30.2889C231.06 30.2884 230.818 30.375 231.094 30.2269C231.216 30.162 235.469 30.1635 237.763 30.1429C242.249 30.1027 250.041 30.0868 250.168 30.2634C250.343 30.5082 254.039 30.3682 254.039 30.3682L254.075 22.5831Z" fill="#f5891d" fill-rule="nonzero" opacity="1" stroke="none"/>
<path d="M223.391 29.3268L231.129 29.3468C231.129 29.3468 231.137 30.1589 231.078 30.2963C231.024 30.422 230.951 34.4757 231.04 37.1097C231.165 40.7884 231.96 44.0415 231.96 44.0415C231.96 44.0415 231.978 44.1473 231.822 44.1988C231.665 44.2504 231.334 44.2477 231.334 44.2477L224.933 44.1196C224.933 44.1196 224.725 44.1472 224.604 44.0816C224.483 44.0161 224.448 43.8573 224.448 43.8573C224.448 43.8573 223.868 41.0243 223.604 37.3917C223.34 33.7591 223.391 29.3268 223.391 29.3268Z" fill="#f5891d" fill-rule="nonzero" opacity="1" stroke="none"/>
<path d="M252.036 46.3152L247.231 52.2537C247.231 52.2537 250.627 54.6351 253.488 57.0226C256.349 59.4101 258.452 62.0462 258.452 62.0462L258.997 61.7853L262.79 57.0371L262.985 56.1781C262.985 56.1781 261.083 53.969 258.346 51.5033C255.609 49.0376 252.036 46.3152 252.036 46.3152Z" fill="#f5891d" fill-rule="nonzero" opacity="1" stroke="none"/>
</g>
</g>
</g>
</svg>
